# xmcd
#
# Track frame offsets:
#      150
#      16764
#      36848
#      56325
#      71723
#      92213
#      116931
#      137456
#      154010
#      171667
# 
# Disc length: 2548 seconds
#
# Revision: 3
# Processed by: cddbd v1.5.1PL0 Copyright (c) Steve Scherf et al.
#
# Submitted via: FreeRIP 1.21
#
DISCID=8609f20a
DTITLE=許\慧欣 - 幸福
DYEAR=2004
DGENRE=Pop
TTITLE0=大風吹
TTITLE1=我要輕輕為你唱首歌
TTITLE2=幸福
TTITLE3=誰怕誰
TTITLE4=肯定就是你
TTITLE5=愛過以後
TTITLE6=悲傷獨角獸
TTITLE7=愛不簡單
TTITLE8=愛情精靈
TTITLE9=我們
EXTD=YEAR: 2004
EXTT0=
EXTT1=
EXTT2=
EXTT3=
EXTT4=
EXTT5=
EXTT6=
EXTT7=
EXTT8=
EXTT9=
PLAYORDER=
